<?xml version="1.0" encoding="UTF-8"?><svg id="a" xmlns="http://www.w3.org/2000/svg" viewBox="0 0 36 36"><path d="m3.69,18.02c1.74.86,2.61,2.52,2.61,5v6.24c0,1.63.31,2.62.93,2.96.62.34,1.71.52,3.27.52v3.22l-1.9.04c-2.15,0-3.72-.46-4.7-1.39-.98-.93-1.48-2.49-1.48-4.68v-6.72c0-1.38-.23-2.31-.7-2.81-.46-.5-1.04-.83-1.73-.98v-3.06c1.62-.34,2.42-1.51,2.42-3.52v-7.06c0-2.05.5-3.53,1.49-4.43.99-.9,2.6-1.35,4.82-1.35.38,0,.97.01,1.77.04v3.22c-1.77,0-2.91.23-3.43.67-.51.45-.77,1.36-.77,2.72v6.41c0,.87-.13,1.76-.39,2.67-.26.91-1,1.67-2.22,2.29Z" style="fill:#5d2f86;"/><path d="m32.31,17.98c-1.74-.84-2.61-2.51-2.61-5v-6.24c0-1.63-.31-2.62-.92-2.96-.61-.34-1.7-.52-3.28-.52V.04l1.88-.04c2.22,0,3.8.48,4.75,1.45s1.42,2.51,1.42,4.62v6.72c0,1.36.23,2.3.69,2.8.46.51,1.04.84,1.76.99v3.06c-1.63.34-2.44,1.51-2.44,3.52v7.06c0,2.05-.5,3.53-1.49,4.43-.99.9-2.59,1.35-4.8,1.35-.39,0-.98-.01-1.77-.04v-3.22c1.77,0,2.91-.23,3.43-.67.51-.45.77-1.36.77-2.72v-6.41c0-.96.14-1.87.42-2.74.28-.87,1.01-1.61,2.19-2.21Z" style="fill:#5d2f86;"/><g><path d="m18.57,29.43c0-2-1.6-2.57-3.66-3.09-.29-.06-.86-.74-.86-1.77,0-1.43,1.09-2.86,3.2-2.86,2,0,4.74,1.89,4.74,6.06,0,4.51-3.94,7.26-7.26,8.23l-.74-1.66c2.57-1.2,4.57-2.74,4.57-4.91Z" style="fill:#fd7e14;"/><path d="m18,15.28c-2.06,0-3.43-1.49-3.43-3.43,0-2.06,1.37-3.6,3.43-3.6s3.49,1.49,3.49,3.54c0,1.94-1.43,3.49-3.49,3.49Z" style="fill:#fd7e14;"/></g></svg>